<svg width="257" height="51" viewBox="0 0 257 51" fill="none" xmlns="http://www.w3.org/2000/svg">
<path d="M28.5648 8.71902C28.7716 9.43522 29.4266 9.9276 30.1712 9.9276H31.0848C32.0121 9.9276 32.6602 10.7643 32.5223 11.6114C32.4982 11.7525 32.4534 11.8903 32.3844 12.028C31.8708 13.0541 31.6019 14.1869 31.6019 15.3335V17.1963C31.6019 17.9848 31.7294 18.763 31.9742 19.5067C32.2982 20.4743 33.4738 20.8393 34.2908 20.2264L45.067 12.1175C45.7393 11.6114 45.8599 10.661 45.3532 9.98958C41.3095 4.61811 35.1629 0.913167 28.1373 0.097116C27.1204 -0.0199546 26.3137 0.940713 26.5998 1.92548L28.5648 8.72246V8.71902Z" fill="#9583FF"/>
<path d="M17.3372 16.005C17.906 16.4802 18.7678 16.0739 18.7678 15.337C18.7678 14.3143 18.5541 13.3055 18.1473 12.3724C18.0956 12.2587 18.0439 12.1451 17.9887 12.0315C17.9611 11.9729 17.937 11.9178 17.9163 11.8593C17.5923 10.9365 18.2748 9.93109 19.2883 9.93109H25.0246C26.1347 9.93109 26.9345 8.87057 26.6276 7.80316L24.673 1.04061C24.4834 0.382948 23.856 -0.0474584 23.1734 0.00419038C17.4992 0.451813 12.3524 2.77601 8.35694 6.35355C7.69851 6.94234 7.7054 7.96843 8.38108 8.53313C10.5494 10.3408 15.0344 14.0836 17.3372 16.005Z" fill="#9583FF"/>
<path d="M45.6016 39.908C47.3804 37.4667 48.7283 34.6915 49.535 31.6958C49.7349 30.9521 49.4971 30.1533 48.9283 29.6333L38.969 20.4812C38.3588 19.9199 37.4315 19.8752 36.7696 20.3744L35.1184 21.6174C34.2497 22.2717 33.9911 23.463 34.5117 24.4168L37.6384 30.1395C38.4278 31.5857 38.5691 33.1455 38.2141 34.5537C37.9969 35.4214 38.2899 36.3339 39.0138 36.8573L43.6367 40.211C44.2606 40.6655 45.1431 40.5312 45.5947 39.908H45.6016Z" fill="#9583FF"/>
<path d="M41.4029 20.5363L47.87 26.4794C48.8318 27.3643 50.3934 26.6963 50.4072 25.3913C50.4072 25.3018 50.4072 25.2088 50.4072 25.1193C50.4072 21.225 49.5213 17.5338 47.939 14.242C47.5253 13.3812 46.429 13.1092 45.6637 13.6842L41.5856 16.7522C40.3514 17.6819 40.2618 19.4999 41.3994 20.5432L41.4029 20.5363Z" fill="#9583FF"/>
<path d="M17.3683 18.126L7.18844 9.62802C6.56103 9.10465 5.62681 9.19761 5.1304 9.84494C2.63111 13.1126 0.9178 17.0035 0.26626 21.2456C0.169736 21.8757 0.49723 22.4955 1.07293 22.7675L11.4907 27.6913C12.6421 28.2354 14.0175 27.7877 14.6243 26.6721L17.8647 20.7394C18.3439 19.8614 18.1336 18.7664 17.3649 18.1225L17.3683 18.126Z" fill="#9583FF"/>
<path d="M5.76108 26.7582L2.05523 25.0056C1.08309 24.5477 -0.0303917 25.2776 0.000634033 26.3519C0.000634033 26.4621 0.00752864 26.5551 0.0109759 26.624C0.100606 28.1528 0.328128 29.6471 0.6832 31.0933C0.907274 32.0058 2.02765 32.3432 2.71021 31.6924L6.0472 28.5109C6.59532 27.9909 6.44709 27.0819 5.76452 26.7582H5.76108Z" fill="#9583FF"/>
<path d="M38.1758 38.2277C37.445 37.6974 36.4487 37.6561 35.7041 38.1657C34.7354 38.8303 33.553 39.2297 32.2327 39.2297H29.7058C28.4958 39.2297 27.4202 39.9941 27.0204 41.1338L24.5866 48.0754C24.2039 49.1635 25.0278 50.2997 26.1792 50.2791C26.3378 50.2791 26.4653 50.2722 26.5481 50.2687C32.7084 49.9416 38.2827 47.404 42.4884 43.4373C43.133 42.8279 43.0779 41.788 42.3609 41.2646L38.1724 38.2277H38.1758Z" fill="#9583FF"/>
<path d="M25.0624 41.8672C25.514 40.5795 24.5556 39.2297 23.1905 39.2297H18.1436C13.8828 39.2297 11.0525 35.0324 12.2798 31.1863C12.4935 30.5183 12.1626 29.7986 11.5317 29.4956L10.4458 28.9791C9.4185 28.4902 8.19126 28.683 7.36736 29.4715L2.48253 34.1337C2.10333 34.4952 2.00335 35.0565 2.22053 35.5351C5.60578 42.9656 12.4969 48.4645 20.7843 49.9244C21.5771 50.0622 22.3528 49.5973 22.6182 48.8364L25.0589 41.8707L25.0624 41.8672Z" fill="#9583FF"/>
<path d="M30.7128 29.5472L31.316 29.9708C32.1882 30.5871 31.6194 31.9541 30.568 31.775L29.8406 31.6511C28.9615 31.4996 28.1962 32.264 28.3479 33.142L28.472 33.8685C28.6547 34.9187 27.2827 35.4869 26.6656 34.6157L26.2416 34.0131C25.728 33.2866 24.6455 33.2866 24.1319 34.0131L23.7078 34.6157C23.0908 35.4869 21.7222 34.9187 21.9015 33.8685L22.0256 33.142C22.1772 32.264 21.4119 31.4996 20.5329 31.6511L19.8055 31.775C18.7541 31.9575 18.1853 30.5871 19.0574 29.9708L19.6607 29.5472C20.3881 29.0342 20.3881 27.953 19.6607 27.44L19.0574 27.0165C18.1853 26.4001 18.7541 25.0331 19.8055 25.2122L20.5329 25.3362C21.4119 25.4877 22.1772 24.7233 22.0256 23.8452L21.9015 23.1187C21.7188 22.0685 23.0908 21.5004 23.7078 22.3715L24.1319 22.9741C24.6455 23.7006 25.728 23.7006 26.2416 22.9741L26.6656 22.3715C27.2827 21.5004 28.6513 22.0685 28.472 23.1187L28.3479 23.8452C28.1962 24.7233 28.9615 25.4877 29.8406 25.3362L30.568 25.2122C31.6194 25.0297 32.1882 26.4001 31.316 27.0165L30.7128 27.44C29.9854 27.953 29.9854 29.0342 30.7128 29.5472Z" fill="#4BE2C5"/>
<path d="M251.21 32.821C247.679 32.821 246.131 30.6735 245.78 28.2577L247.638 27.886C247.969 29.6411 248.96 31.2104 251.19 31.2104C252.573 31.2104 254.184 30.7355 254.184 28.8771C254.184 26.9362 252.965 26.4819 251.809 26.1722L249.848 25.656C247.783 25.0984 246.234 23.8595 246.234 21.5882C246.234 19.4201 248.051 17.4585 250.901 17.4585C253.585 17.4585 255.753 18.5735 256.042 21.5676L254.204 22.1044C254.019 19.7918 252.532 19.0691 250.963 19.0691C248.815 19.0691 248.196 20.3286 248.196 21.423C248.196 22.7239 249.207 23.5498 250.446 23.9008L252.325 24.3964C254.287 24.9126 256.145 25.7799 256.145 28.6087C256.145 30.6735 254.7 32.821 251.21 32.821Z" fill="white"/>
<path d="M237.559 17.8096C241.337 17.8096 242.329 19.9777 242.329 21.7121C242.329 23.0956 241.544 24.3758 239.871 24.8507C241.627 25.1604 242.742 26.4407 242.742 28.4436C242.742 30.3226 241.627 32.47 237.992 32.47H232.872V17.8096H237.559ZM234.792 19.3995V24.2106H237.538C239.975 24.2106 240.367 22.9098 240.367 21.8567C240.367 20.6384 239.83 19.3995 237.538 19.3995H234.792ZM234.792 25.7799V30.8801H237.869C240.078 30.8801 240.78 29.6412 240.78 28.2577C240.78 26.8536 239.995 25.7799 238.075 25.7799H234.792Z" fill="white"/>
<path d="M227.687 32.47L226.324 28.2371H221.224L219.882 32.47H217.982L222.69 17.8096H224.879L229.586 32.47H227.687ZM223.764 19.5027C223.371 21.2372 222.669 23.6737 221.74 26.5852H225.808C224.879 23.6737 224.197 21.2372 223.805 19.5027H223.764Z" fill="white"/>
<path d="M206.127 17.8096H208.048V30.8181H215.068V32.47H206.127V17.8096Z" fill="white"/>
<path d="M184.668 32.47V17.8096H188.963C192.99 17.8096 195.199 20.8862 195.199 25.1191C195.199 29.3108 192.783 32.47 188.922 32.47H184.668ZM186.589 30.8594H188.901C191.668 30.8594 193.217 28.1545 193.217 25.1191C193.217 22.0012 191.792 19.4202 188.943 19.4202H186.589V30.8594Z" fill="white"/>
<path d="M180.495 19.3582H176.82V30.9214H180.495V32.47H171.245V30.9214H174.899V19.3582H171.245V17.8096H180.495V19.3582Z" fill="white"/>
<path d="M161.93 29.6412C162.012 29.9509 162.136 30.4878 162.198 30.7768H162.281C162.343 30.4878 162.466 29.9509 162.549 29.6412L165.791 17.8096H167.835L163.416 32.47H161.042L156.644 17.8096H158.646L161.93 29.6412Z" fill="white"/>
<path d="M148.609 32.821C145.037 32.821 143.261 30.1573 143.261 25.8005V24.479C143.261 20.1222 145.037 17.4585 148.609 17.4585C152.181 17.4585 153.957 20.1222 153.957 24.479V25.8005C153.957 30.1573 152.181 32.821 148.609 32.821ZM148.609 31.1691C150.901 31.1691 151.954 29.4759 151.954 25.8005V24.479C151.954 20.8036 150.901 19.1104 148.609 19.1104C146.317 19.1104 145.264 20.8036 145.264 24.479V25.8005C145.264 29.4759 146.317 31.1691 148.609 31.1691Z" fill="white"/>
<path d="M134.916 32.821C131.427 32.821 129.692 30.1573 129.692 25.6766V24.6029C129.692 20.1222 131.571 17.4585 135.082 17.4585C138.138 17.4585 139.872 19.131 140.244 22.6206L138.323 22.9304C138.158 20.5351 137.085 19.1104 135.061 19.1104C132.769 19.1104 131.675 20.7829 131.675 24.4996V25.5527C131.675 29.2694 132.852 31.1691 135.061 31.1691C137.105 31.1691 138.158 29.7444 138.323 27.3285L140.223 27.7208C139.913 30.6116 138.303 32.821 134.916 32.821Z" fill="white"/>
<path d="M114.015 32.821C110.712 32.821 109.039 29.8683 109.039 25.8005V24.3551C109.039 20.0809 110.939 17.4585 114.366 17.4585C118.021 17.4585 118.888 20.2667 119.116 21.8979L117.237 22.1664C117.092 20.9274 116.411 19.1104 114.304 19.1104C112.302 19.1104 111.042 20.3906 111.042 24.6855V25.4908C111.042 28.9804 111.971 31.1485 114.304 31.1485C116.947 31.1485 117.526 28.4642 117.526 27.2252V26.358H113.85V24.8094H119.281V32.47H117.959L117.67 30.3225C117.071 31.7886 115.998 32.821 114.015 32.821Z" fill="white"/>
<path d="M102.801 27.7828C103.193 28.712 103.42 29.3934 103.503 29.7031H103.544C103.503 29.2076 103.503 28.6707 103.503 28.1338V17.8096H105.423V32.47H103.173L98.568 21.9186C98.217 21.1133 97.9073 20.1841 97.9073 20.1841H97.8453C97.8866 20.5765 97.8866 21.0101 97.8866 21.4437V32.47H95.9663V17.8096H98.4854L102.801 27.7828Z" fill="white"/>
<path d="M87.0638 32.821C83.4916 32.821 81.7158 30.1573 81.7158 25.8005V24.479C81.7158 20.1222 83.4916 17.4585 87.0638 17.4585C90.636 17.4585 92.4118 20.1222 92.4118 24.479V25.8005C92.4118 30.1573 90.636 32.821 87.0638 32.821ZM87.0638 31.1691C89.3558 31.1691 90.4088 29.4759 90.4088 25.8005V24.479C90.4088 20.8036 89.3558 19.1104 87.0638 19.1104C84.7718 19.1104 83.7187 20.8036 83.7187 24.479V25.8005C83.7187 29.4759 84.7718 31.1691 87.0638 31.1691Z" fill="white"/>
<path d="M69.4072 17.8096H71.3275V30.8181H78.348V32.47H69.4072V17.8096Z" fill="white"/>
</svg>
