<svg width="250" height="40" viewBox="0 0 250 40" fill="none" xmlns="http://www.w3.org/2000/svg">
<path d="M33.285 7.46677H23.0787L26.7737 11.1618H31.7549L37.274 16.6775V16.6809L31.7014 22.2534H23.2557L15.8257 14.8233H8.55261V16.6708V18.5183H14.2855L21.7156 25.9484H33.2316L40.655 18.5284L40.6516 14.8334L33.285 7.46677Z" fill="#9786FF"/>
<path d="M7.40335 25.9417H17.6097L13.9147 22.2467H8.93346L3.38095 16.6942V16.6909L8.91008 11.1618H17.3558L24.8293 18.5484L32.0589 18.5918V16.7443V14.8534H26.3694L18.9393 7.42334L7.37996 7.46677L0 14.8467V18.5417L7.40335 25.9417Z" fill="#9786FF"/>
<path d="M11.0482 29.6501H29.9207L37.5713 37.304L34.9621 39.9166L28.3906 33.3451H14.7432L11.0482 29.6501Z" fill="#9786FF"/>
<path d="M37.5546 32.0923L34.9387 29.4797L44.3165 20.1053V13.2632L34.8318 3.77846H18.1041L21.7991 0.0834656H36.3619L48.0115 11.7331V21.6354L38.6471 30.9965L38.3197 31.3239L37.5546 32.0923Z" fill="#9786FF"/>
<path d="M62.8249 26.4295C61.5587 25.8014 60.5598 24.8726 59.8214 23.6399C59.0865 22.4071 58.719 20.9371 58.719 19.2266C58.719 16.5004 59.4506 14.4191 60.9106 12.9792C62.3705 11.5393 64.3884 10.821 66.9642 10.821C68.3707 10.821 69.55 10.9713 70.5022 11.2753C71.4543 11.5794 72.3731 12.0638 73.2617 12.7353V15.8523H70.2449V14.0683C69.7471 13.7877 69.2728 13.5939 68.8184 13.4837C68.364 13.3767 67.746 13.3199 66.9676 13.3199C65.5176 13.3199 64.345 13.801 63.4463 14.7632C62.5476 15.7254 62.0999 17.2121 62.0999 19.2266C62.0999 21.1309 62.6144 22.5441 63.6401 23.4628C64.669 24.3815 65.982 24.8426 67.5823 24.8426C68.5778 24.8426 69.4264 24.7557 70.1313 24.582C70.8329 24.4083 71.5011 24.1176 72.1258 23.7067L73.3252 25.6878C72.4165 26.3159 71.4911 26.7536 70.549 27.0008C69.6068 27.248 68.4442 27.375 67.0611 27.375C65.5043 27.375 64.0911 27.0609 62.8249 26.4328V26.4295Z" fill="white"/>
<path d="M76.7997 25.307C75.3164 23.9339 74.578 21.926 74.578 19.2867C74.578 16.4737 75.2629 14.359 76.6393 12.9424C78.0124 11.5259 79.9668 10.8177 82.4959 10.8177C85.0249 10.8177 86.7889 11.5092 88.0451 12.8957C89.3012 14.2821 89.926 16.153 89.926 18.5117V20.005H78.0158C78.0158 21.759 78.4434 23.0519 79.2987 23.8838C80.1539 24.7156 81.3065 25.1332 82.7565 25.1332C83.5783 25.1332 84.2699 25.0731 84.8345 24.9562C85.3957 24.8359 85.9069 24.6388 86.3613 24.3548V23.1855H89.3781V25.4573C88.4693 26.1054 87.4905 26.5865 86.4414 26.9006C85.3924 27.2146 84.1529 27.3716 82.7264 27.3716C80.2608 27.3716 78.2864 26.6867 76.803 25.3103L76.7997 25.307ZM86.5851 17.8903C86.5851 14.7298 85.212 13.1529 82.4625 13.1529C81.0125 13.1529 79.91 13.5739 79.1517 14.4191C78.3933 15.2643 78.0158 16.4203 78.0158 17.8903H86.5851Z" fill="white"/>
<path d="M91.1821 24.4818H91.994C92.4249 24.4818 92.7356 24.3916 92.9194 24.2045C93.1031 24.0207 93.1967 23.7134 93.1967 23.2791V14.9069C93.1967 14.4959 93.1098 14.1919 92.9361 13.9981C92.7624 13.8044 92.4717 13.7075 92.0608 13.7075H91.3792V11.3054H95.8593L96.3137 13.0894C96.7447 12.4179 97.3026 11.9535 97.9841 11.6929C98.6657 11.4324 99.4708 11.3021 100.403 11.3021H101.896V13.7041H100.079C98.8461 13.7041 97.9708 13.9814 97.4496 14.5327C96.9318 15.0839 96.6712 15.9325 96.6712 17.0818V23.2791C96.6712 23.7134 96.758 24.0207 96.9318 24.2045C97.1055 24.3882 97.3961 24.4818 97.8071 24.4818H98.6189V26.8838H91.1855V24.4818H91.1821Z" fill="white"/>
<path d="M104.632 25.307C103.149 23.9339 102.407 21.926 102.407 19.2867C102.407 16.4737 103.096 14.359 104.469 12.9424C105.842 11.5259 107.796 10.8177 110.329 10.8177C112.861 10.8177 114.622 11.5092 115.878 12.8957C117.134 14.2821 117.759 16.153 117.759 18.5117V20.005H105.848C105.848 21.759 106.276 23.0519 107.131 23.8838C107.987 24.7156 109.139 25.1332 110.589 25.1332C111.411 25.1332 112.103 25.0731 112.667 24.9562C113.228 24.8359 113.74 24.6388 114.194 24.3548V23.1855H117.214V25.4573C116.305 26.1054 115.327 26.5865 114.277 26.9006C113.228 27.2146 111.989 27.3716 110.562 27.3716C108.097 27.3716 106.122 26.6867 104.639 25.3103L104.632 25.307ZM114.418 17.8903C114.418 14.7298 113.045 13.1529 110.295 13.1529C108.845 13.1529 107.743 13.5739 106.984 14.4191C106.226 15.2643 105.848 16.4203 105.848 17.8903H114.418Z" fill="white"/>
<path d="M122.727 24.6755L122.466 26.8839H119.803V9.19399C119.803 8.6962 119.723 8.33539 119.559 8.10821C119.396 7.88103 119.068 7.76744 118.571 7.76744H117.952V5.39877H123.144V13.1863C123.705 12.3845 124.454 11.7898 125.383 11.4023C126.311 11.0148 127.364 10.8177 128.53 10.8177C130.715 10.8177 132.375 11.5192 133.511 12.9257C134.647 14.3322 135.215 16.3869 135.215 19.093C135.215 21.7991 134.583 23.7167 133.317 25.1767C132.051 26.6366 130.337 27.3683 128.172 27.3683C125.62 27.3683 123.802 26.4696 122.72 24.6755H122.727ZM130.872 23.4762C131.52 22.5675 131.844 21.0841 131.844 19.0295C131.844 16.9749 131.513 15.4815 130.855 14.6162C130.193 13.7509 129.088 13.3166 127.527 13.3166C126.295 13.3166 125.272 13.7376 124.46 14.5828C123.649 15.428 123.244 16.6174 123.244 18.1542V20.0351C123.244 21.4416 123.662 22.5942 124.494 23.4929C125.326 24.3916 126.401 24.8392 127.724 24.8392C129.174 24.8392 130.223 24.3849 130.872 23.4762Z" fill="white"/>
<path d="M136.284 24.4818H137.096C137.527 24.4818 137.837 24.3916 138.021 24.2045C138.205 24.0207 138.298 23.7134 138.298 23.2791V14.9069C138.298 14.4959 138.211 14.1919 138.038 13.9981C137.864 13.8044 137.573 13.7075 137.162 13.7075H136.481V11.3054H140.961L141.415 13.0894C141.846 12.4179 142.404 11.9535 143.086 11.6929C143.767 11.4324 144.572 11.3021 145.505 11.3021H146.998V13.7041H145.18C143.948 13.7041 143.072 13.9814 142.551 14.5327C142.03 15.0839 141.773 15.9325 141.773 17.0818V23.2791C141.773 23.7134 141.86 24.0207 142.033 24.2045C142.207 24.3882 142.498 24.4818 142.909 24.4818H143.721V26.8838H136.287V24.4818H136.284Z" fill="white"/>
<path d="M152.216 25.9751C151.308 25.0464 150.853 23.7134 150.853 21.9828V14.9069C150.853 14.4959 150.76 14.1919 150.576 13.9982C150.392 13.8044 150.095 13.7075 149.684 13.7075H148.742V11.3054H154.324V21.9494C154.324 24.0475 155.34 25.0965 157.375 25.0965C158.477 25.0965 159.366 24.7724 160.037 24.1243C160.709 23.4762 161.043 22.5441 161.043 21.3347V14.9102C161.043 14.4993 160.963 14.1953 160.799 14.0015C160.635 13.8077 160.361 13.7108 159.97 13.7108H159.062V11.3088H164.481V23.2857C164.481 23.6967 164.578 23.994 164.771 24.1778C164.965 24.3615 165.269 24.455 165.68 24.455H166.328V26.8905H162.205L162.012 24.7825C161.32 25.6912 160.512 26.3527 159.593 26.7636C158.674 27.1745 157.555 27.3816 156.235 27.3816C154.461 27.3816 153.122 26.9173 152.213 25.9852L152.216 25.9751Z" fill="white"/>
<path d="M168.152 24.4818H168.964C169.395 24.4818 169.706 24.3916 169.889 24.2045C170.073 24.0207 170.167 23.7134 170.167 23.2791V14.9069C170.167 14.4959 170.073 14.1986 169.889 14.0149C169.706 13.8311 169.398 13.7376 168.964 13.7376H168.316V11.3021H172.372L172.599 13.5104C173.184 12.6017 173.912 11.9268 174.791 11.4825C175.666 11.0382 176.732 10.8177 177.988 10.8177C178.94 10.8177 179.762 11.0348 180.453 11.4658C181.145 11.9001 181.666 12.5148 182.01 13.3166C182.551 12.4513 183.216 11.8199 184.005 11.419C184.793 11.0181 185.785 10.8177 186.975 10.8177C188.749 10.8177 190.032 11.262 190.82 12.1473C191.608 13.036 192.006 14.3657 192.006 16.1396V23.2791C192.006 23.69 192.103 23.994 192.297 24.1878C192.49 24.3816 192.794 24.4784 193.205 24.4784H194.114V26.8805H188.598V16.1396C188.598 15.0572 188.391 14.2888 187.98 13.8345C187.569 13.3801 186.878 13.1529 185.902 13.1529C184.927 13.1529 184.122 13.4336 183.55 13.9982C182.976 14.5594 182.692 15.3846 182.692 16.4637V23.2791C182.692 23.7134 182.772 24.0207 182.936 24.2045C183.099 24.3882 183.383 24.4818 183.794 24.4818H184.669V26.8839H179.478V16.2399C179.478 15.1808 179.271 14.4024 178.86 13.9046C178.449 13.4068 177.801 13.1596 176.912 13.1596C175.83 13.1596 174.998 13.4636 174.413 14.0683C173.828 14.673 173.538 15.5617 173.538 16.731V23.2858C173.538 23.7201 173.618 24.0274 173.782 24.2112C173.945 24.3949 174.229 24.4885 174.64 24.4885H175.516V26.8905H168.149V24.4885L168.152 24.4818Z" fill="white"/>
<path d="M200.655 25.2936C199.456 23.9105 198.855 21.9293 198.855 19.3535C198.855 16.6508 199.449 14.5494 200.639 13.056C201.828 11.5626 203.549 10.8176 205.8 10.8176C207.12 10.8176 208.176 10.9813 208.964 11.3054C209.753 11.6295 210.407 12.1707 210.929 12.9291V9.19732C210.929 8.67948 210.842 8.31199 210.668 8.09483C210.494 7.87768 210.16 7.77077 209.662 7.77077H209.111V5.4021H214.273V23.4127C214.273 23.8904 214.35 24.2178 214.5 24.4016C214.65 24.5853 214.931 24.6789 215.345 24.6789H215.993V26.8872H211.644L211.353 24.6154C210.705 25.5876 209.936 26.2925 209.048 26.7235C208.159 27.1544 207.037 27.3716 205.673 27.3716C203.532 27.3716 201.862 26.68 200.659 25.2936H200.655ZM209.692 23.4929C210.471 22.5942 210.862 21.3881 210.862 19.8747V18.221C210.862 16.6408 210.488 15.4314 209.743 14.5861C208.998 13.7409 207.942 13.3199 206.579 13.3199C205.042 13.3199 203.933 13.7943 203.251 14.7465C202.57 15.6986 202.229 17.2254 202.229 19.3235C202.229 21.4215 202.553 22.7311 203.201 23.5764C203.849 24.4216 204.932 24.8426 206.445 24.8426C207.828 24.8426 208.911 24.3949 209.689 23.4962L209.692 23.4929Z" fill="#9786FF"/>
<path d="M218.893 26.2324C217.995 25.474 217.547 24.405 217.547 23.0185C217.547 21.4617 218.038 20.3191 219.024 19.5941C220.009 18.8691 221.429 18.4415 223.29 18.3112L227.833 18.0206V16.0394C227.833 15.0238 227.616 14.2855 227.185 13.8311C226.751 13.3768 226.016 13.1496 224.977 13.1496C224.262 13.1496 223.674 13.2097 223.21 13.3267C222.745 13.4469 222.318 13.634 221.927 13.8946V15.0639H218.907V12.5015C220.724 11.3756 222.769 10.8143 225.04 10.8143C229.196 10.8143 231.271 12.6551 231.271 16.3301V23.4361C231.271 23.8704 231.351 24.1811 231.515 24.3782C231.679 24.5753 231.943 24.6689 232.31 24.6689H233.025V26.8772H229.293L228.872 24.8326C228.181 25.7213 227.376 26.3627 226.454 26.7636C225.535 27.1645 224.329 27.365 222.835 27.365C221.105 27.365 219.789 26.9874 218.893 26.2291V26.2324ZM226.697 24.1878C227.456 23.6265 227.833 22.7713 227.833 21.6254V20.0685L223.55 20.3926C222.491 20.4561 221.753 20.6799 221.342 21.0574C220.931 21.4349 220.724 22.0363 220.724 22.8581C220.724 23.5731 220.951 24.1143 221.406 24.4818C221.86 24.8493 222.595 25.033 223.611 25.033C224.91 25.033 225.936 24.7524 226.694 24.1878H226.697Z" fill="#9786FF"/>
<path d="M236.045 25.1934C234.702 23.7435 234.034 21.7222 234.034 19.1231C234.034 16.5239 234.699 14.4659 236.029 13.0059C237.358 11.546 239.356 10.8143 242.015 10.8143C244.675 10.8143 246.673 11.546 248.002 13.0059C249.332 14.4659 249.997 16.5072 249.997 19.1231C249.997 21.7389 249.325 23.7435 247.985 25.1934C246.642 26.6433 244.655 27.3683 242.015 27.3683C239.376 27.3683 237.385 26.6433 236.045 25.1934ZM245.49 23.5063C246.248 22.5541 246.626 21.0942 246.626 19.1264C246.626 17.1586 246.248 15.6586 245.49 14.6964C244.731 13.7342 243.576 13.2532 242.019 13.2532C240.462 13.2532 239.309 13.7342 238.561 14.6964C237.816 15.6586 237.442 17.1352 237.442 19.1264C237.442 21.1175 237.816 22.5575 238.561 23.5063C239.306 24.4584 240.459 24.9328 242.019 24.9328C243.579 24.9328 244.735 24.4584 245.49 23.5063Z" fill="#9786FF"/>
</svg>
