<svg width="141" height="57" viewBox="0 0 141 57" fill="none" xmlns="http://www.w3.org/2000/svg">
<g clip-path="url(#clip0_7168_415)">
<g clip-path="url(#clip1_7168_415)">
<path d="M18.5 47C28.7173 47 37 38.7173 37 28.5C37 18.2827 28.7173 10 18.5 10C8.28273 10 0 18.2827 0 28.5C0 38.7173 8.28273 47 18.5 47Z" fill="#9786FF"/>
<path d="M15.723 25.4451C15.8759 24.9381 15.1625 24.6221 14.8847 25.0757C14.3828 25.9012 14.072 27.0528 14.3854 28.6223C15.351 33.4505 22.8595 34.3091 26.1947 29.1701C29.5298 24.031 26.9208 15.669 19.3053 15.2282C12.9127 14.8587 7.11377 20.2042 7.11377 29.1701C7.11377 38.136 15.2058 44.605 26.666 40.0927C27.4941 39.7666 27.9094 38.8315 27.596 37.9958C27.4941 37.7232 27.3896 37.4404 27.2903 37.1703C26.9769 36.3194 26.0316 35.8837 25.1832 36.2047C23.9526 36.6735 22.0493 37.1882 19.797 37.0965C14.0057 36.8595 10.4489 32.0109 11.5419 25.8884C12.3522 21.3558 16.072 18.757 19.1881 18.757C22.3041 18.757 25.3182 20.3112 25.3717 24.1406C25.415 27.2566 23.1857 30.5918 19.8505 30.5918C17.1855 30.5918 14.8695 28.2528 15.7204 25.4451H15.723Z" fill="white"/>
</g>
<path d="M117.859 39.7031L111.453 17.2969H114.656L119.625 35.125L124.578 17.2969H127.781L132.734 35.125L137.703 17.2969H140.906L134.5 39.7031H130.984L126.188 22.9062L121.375 39.7031H117.859Z" fill="white"/>
<path d="M102.172 17.2969L110.812 39.7031H107.609L105.625 34.5469H95.5156L93.5312 39.7031H90.3281L98.9688 17.2969H102.172ZM96.7344 31.3438H104.391L100.578 21.4688L96.7344 31.3438Z" fill="white"/>
<path d="M76.8906 17.2969V36.5H88.4062V39.7031H73.6875V17.2969H76.8906Z" fill="white"/>
<path d="M50 20.5C50 20.0625 50.0833 19.651 50.25 19.2656C50.4167 18.8698 50.6458 18.5312 50.9375 18.25C51.2292 17.9583 51.5677 17.7292 51.9531 17.5625C52.349 17.3854 52.7656 17.2969 53.2031 17.2969H65.3594C65.7969 17.2969 66.2083 17.3854 66.5938 17.5625C66.9896 17.7292 67.3333 17.9583 67.625 18.25C67.9167 18.5312 68.1458 18.8698 68.3125 19.2656C68.4792 19.651 68.5625 20.0625 68.5625 20.5V23.3906H65.3594V20.5H53.2031V36.5H65.3594V33.625H68.5625V36.5C68.5625 36.9375 68.4792 37.3542 68.3125 37.75C68.1458 38.1354 67.9167 38.474 67.625 38.7656C67.3333 39.0573 66.9896 39.2865 66.5938 39.4531C66.2083 39.6198 65.7969 39.7031 65.3594 39.7031H53.2031C52.7656 39.7031 52.349 39.6198 51.9531 39.4531C51.5677 39.2865 51.2292 39.0573 50.9375 38.7656C50.6458 38.474 50.4167 38.1354 50.25 37.75C50.0833 37.3542 50 36.9375 50 36.5V20.5Z" fill="white"/>
</g>
<defs>
<clipPath id="clip0_7168_415">
<rect width="140.906" height="57" rx="8" fill="white"/>
</clipPath>
<clipPath id="clip1_7168_415">
<rect width="37" height="37" fill="white" transform="translate(0 10)"/>
</clipPath>
</defs>
</svg>
